<?xml version="1.0" encoding="UTF-8" standalone="no"?>
<!-- Created with Inkscape (http://www.inkscape.org/) -->
<svg xmlns:dc="http://purl.org/dc/elements/1.1/" xmlns:cc="http://web.resource.org/cc/" xmlns:rdf="http://www.w3.org/1999/02/22-rdf-syntax-ns#" xmlns:svg="http://www.w3.org/2000/svg" xmlns="http://www.w3.org/2000/svg" xmlns:sodipodi="http://sodipodi.sourceforge.net/DTD/sodipodi-0.dtd" xmlns:inkscape="http://www.inkscape.org/namespaces/inkscape" width="446.94452" height="275.2923" id="svg2" sodipodi:version="0.32" inkscape:version="0.44.1" sodipodi:docbase="/home/jparpail/notes/logos" sodipodi:docname="matroska.svg" version="1.0">
  <defs id="defs4"/>
  <sodipodi:namedview id="base" pagecolor="#ffffff" bordercolor="#666666" borderopacity="1.0" inkscape:pageopacity="0.0" inkscape:pageshadow="2" inkscape:zoom="0.49497475" inkscape:cx="517.54304" inkscape:cy="483.0481" inkscape:document-units="px" inkscape:current-layer="layer1" showguides="true" inkscape:guide-bbox="true" inkscape:window-width="1131" inkscape:window-height="906" inkscape:window-x="122" inkscape:window-y="46" showborder="true" borderlayer="false" inkscape:showpageshadow="false"/>
  <g inkscape:label="Calque 1" inkscape:groupmode="layer" id="layer1" transform="translate(-224.125,-344.7187)">
    <g id="g19783">
      <path id="path1872" d="M 285,345.21875 C 257.79429,345.21875 235.71874,367.29429 235.71875,394.5 C 235.71875,399.78927 236.58042,404.87906 238.125,409.65625 C 238.56658,411.02201 239.03902,412.37669 239.59375,413.6875 C 239.60285,413.709 239.61587,413.72851 239.625,413.75 C 246.87108,435.51413 240.90625,452.34375 240.90625,452.34375 L 240.96875,452.34375 C 230.84551,471.8866 224.625,498.13441 224.625,527 C 224.625,549.96774 228.54671,571.27795 235.25,588.875 C 239.15627,599.1295 244.05927,608.02846 249.625,615.34375 C 250.07647,615.44646 250.4456,615.58869 250.90625,615.6875 C 254.11477,616.37576 257.54914,616.95294 261.15625,617.4375 C 264.76336,617.92206 268.54409,618.30736 272.46875,618.5625 C 276.39341,618.81764 280.46382,618.96875 284.625,618.96875 C 288.78618,618.96875 292.82534,618.81764 296.75,618.5625 C 300.67466,618.30736 304.45539,617.92206 308.0625,617.4375 C 311.66961,616.95294 315.10398,616.37576 318.3125,615.6875 C 319.1758,615.50231 319.88803,615.26125 320.71875,615.0625 C 326.13685,607.87568 330.88421,599.17729 334.71875,589.1875 C 341.49692,571.52892 345.49999,550.10774 345.5,527 C 345.5,497.4135 338.95039,470.59039 328.375,450.90625 C 327.11415,446.14596 324.43075,432.33148 329.8125,415.0625 C 332.68925,408.80586 334.28125,401.83364 334.28125,394.5 C 334.28125,367.29429 312.20571,345.21874 285,345.21875 z " style="fill:#e6190a;fill-opacity:1;fill-rule:nonzero;stroke:black;stroke-width:1;stroke-linecap:butt;stroke-linejoin:round;stroke-miterlimit:4;stroke-dasharray:none;stroke-dashoffset:0;stroke-opacity:1"/>
      <path transform="matrix(1.091515,0,0,1.091515,13.60106,-28.93594)" d="M 286.88332 387.93436 A 38.133259 38.133259 0 1 1  210.6168,387.93436 A 38.133259 38.133259 0 1 1  286.88332 387.93436 z" sodipodi:ry="38.133259" sodipodi:rx="38.133259" sodipodi:cy="387.93436" sodipodi:cx="248.75006" id="path8999" style="fill:#e8cf7f;fill-opacity:1;fill-rule:nonzero;stroke:black;stroke-width:1;stroke-linecap:butt;stroke-linejoin:round;stroke-miterlimit:4;stroke-dasharray:none;stroke-dashoffset:0;stroke-opacity:1" sodipodi:type="arc"/>
      <path sodipodi:nodetypes="cscs" id="path17098" d="M 284.86302,357.88231 C 285.39071,359.18396 285.57063,364.82221 286.53008,366.29263 C 290.20255,371.92093 299.00515,373.53968 299.00515,373.53968 C 299.00515,373.53968 316.17775,374.80236 319.46074,382.63104 L 319.46074,382.88358 L 316.17775,370.00414 L 298.50008,357.62977 L 284.86302,357.88231 z " style="fill:#7b4800;fill-opacity:1;fill-rule:evenodd;stroke:black;stroke-width:2.20000005;stroke-linecap:butt;stroke-linejoin:miter;stroke-miterlimit:4;stroke-dasharray:none;stroke-opacity:1"/>
      <path sodipodi:nodetypes="cscs" id="path19777" d="M 284.98928,358.13485 C 284.46159,359.4365 284.28167,365.07475 283.32222,366.54517 C 279.64975,372.17347 270.84715,373.79222 270.84715,373.79222 C 270.84715,373.79222 253.67455,375.0549 250.39156,382.88358 L 250.39156,383.13612 L 253.67455,370.25668 L 271.35222,357.88231 L 284.98928,358.13485 z " style="fill:#7b4800;fill-opacity:1;fill-rule:evenodd;stroke:black;stroke-width:2.20000005;stroke-linecap:butt;stroke-linejoin:miter;stroke-miterlimit:4;stroke-dasharray:none;stroke-opacity:1"/>
      <path id="path9003" d="M 284.85925,352.6169 C 261.88334,352.6169 243.23426,371.266 243.23425,394.2419 C 243.23425,417.21781 261.88333,435.86691 284.85925,435.8669 C 307.83516,435.8669 326.48425,417.21782 326.48425,394.2419 C 326.48425,371.26599 307.83515,352.6169 284.85925,352.6169 z M 285.10925,357.8669 C 305.05803,357.86689 321.2655,374.04313 321.2655,393.9919 C 321.26549,413.94067 305.05802,430.14815 285.10925,430.14815 C 265.16049,430.14816 248.98425,413.94067 248.98425,393.9919 C 248.98425,374.04313 265.16048,357.8669 285.10925,357.8669 z " style="fill:#0a42ea;fill-opacity:1;fill-rule:nonzero;stroke:black;stroke-width:1;stroke-linecap:butt;stroke-linejoin:round;stroke-miterlimit:4;stroke-dasharray:none;stroke-dashoffset:0;stroke-opacity:1"/>
      <path id="path11721" d="M 281.40879,408.16133 C 280.33838,408.15313 279.04363,408.38695 279.03379,412.59883 C 279.03258,413.11581 279.20692,414.4953 277.59629,414.34883 L 291.44004,414.66133 C 291.05261,414.55863 290.54691,414.15838 290.59629,412.78633 C 290.66375,410.91169 290.14162,408.19257 288.87754,408.19258 C 286.95176,408.19258 286.80944,409.91132 285.15879,409.91133 C 283.50814,409.91133 283.08426,408.19257 281.84629,408.19258 C 281.70655,408.19258 281.56171,408.1625 281.40879,408.16133 z M 291.47129,414.66133 C 291.70598,414.7164 291.87754,414.66133 291.87754,414.66133 L 291.47129,414.66133 z M 277.72129,414.88008 C 284.13834,426.83132 292.00254,415.09883 292.00254,415.09883 L 277.72129,414.88008 z " style="fill:#ff0404;fill-opacity:1;fill-rule:evenodd;stroke:none;stroke-width:1.36912596px;stroke-linecap:butt;stroke-linejoin:miter;stroke-opacity:1"/>
      <path sodipodi:nodetypes="cc" id="path11715" d="M 268.95311,412.43054 C 284.86301,418.49146 301.53054,412.43054 301.53054,412.43054" style="fill:none;fill-opacity:0.75;fill-rule:evenodd;stroke:black;stroke-width:1px;stroke-linecap:butt;stroke-linejoin:miter;stroke-opacity:1"/>
      <path id="path11717" d="M 269.71073,410.66278 L 268.1955,413.69324" style="fill:none;fill-opacity:0.75;fill-rule:evenodd;stroke:black;stroke-width:1px;stroke-linecap:butt;stroke-linejoin:miter;stroke-opacity:1"/>
      <path id="path11719" d="M 300.52038,410.66278 L 301.78307,413.18816" style="fill:none;fill-opacity:0.75;fill-rule:evenodd;stroke:black;stroke-width:1px;stroke-linecap:butt;stroke-linejoin:miter;stroke-opacity:1"/>
      <path id="path13526" d="M 279.30718,398.52064 L 280.82241,400.54094" style="fill:none;fill-opacity:0.75;fill-rule:evenodd;stroke:black;stroke-width:1px;stroke-linecap:butt;stroke-linejoin:miter;stroke-opacity:1"/>
      <path id="path13528" d="M 286.63079,399.04603 L 285.11556,400.81379" style="fill:none;fill-opacity:0.75;fill-rule:evenodd;stroke:black;stroke-width:1px;stroke-linecap:butt;stroke-linejoin:miter;stroke-opacity:1"/>
      <path sodipodi:nodetypes="cc" id="path19779" d="M 284.48421,362.68053 C 276.40299,358.38738 264.02862,368.23637 264.02862,368.23637" style="fill:none;fill-opacity:0.75;fill-rule:evenodd;stroke:black;stroke-width:1.79999995;stroke-linecap:round;stroke-linejoin:miter;stroke-miterlimit:4;stroke-dasharray:none;stroke-opacity:1"/>
      <g id="g17100">
        <path style="fill:white;fill-opacity:1;fill-rule:evenodd;stroke:none;stroke-width:0.57445019px;stroke-linecap:butt;stroke-linejoin:miter;stroke-opacity:1" d="M 278.13098,387.53108 C 272.18309,400.87758 259.56195,387.67616 259.56195,387.67616 C 259.56195,387.67616 270.58732,373.02402 278.13098,387.53108 z " id="path16195" sodipodi:nodetypes="ccc"/>
        <path style="fill:none;fill-opacity:0.75;fill-rule:evenodd;stroke:black;stroke-width:1px;stroke-linecap:butt;stroke-linejoin:miter;stroke-opacity:1" d="M 278.17075,387.69426 C 270.84715,372.28944 259.73546,387.69426 259.73546,387.69426" id="path16197" sodipodi:nodetypes="cc"/>
        <path style="fill:none;fill-opacity:0.75;fill-rule:evenodd;stroke:black;stroke-width:1px;stroke-linecap:butt;stroke-linejoin:miter;stroke-opacity:1" d="M 258.22024,386.17903 L 259.48293,387.9468 L 258.22024,389.9671 L 259.73546,387.69426 L 258.22024,387.9468" id="path16199"/>
        <path sodipodi:type="arc" style="fill:#003fff;fill-opacity:1;fill-rule:nonzero;stroke:none;stroke-width:1;stroke-linecap:butt;stroke-linejoin:round;stroke-miterlimit:4;stroke-dasharray:none;stroke-dashoffset:0;stroke-opacity:1" id="path16201" sodipodi:cx="301.6568" sodipodi:cy="391.3436" sodipodi:rx="4.6719556" sodipodi:ry="4.6719556" d="M 306.32875 391.3436 A 4.6719556 4.6719556 0 1 1  296.98484,391.3436 A 4.6719556 4.6719556 0 1 1  306.32875 391.3436 z" transform="matrix(-1.108108,0,0,1.108108,604.2316,-46.58811)"/>
        <path sodipodi:type="arc" style="fill:black;fill-opacity:1;fill-rule:nonzero;stroke:none;stroke-width:1;stroke-linecap:butt;stroke-linejoin:round;stroke-miterlimit:4;stroke-dasharray:none;stroke-dashoffset:0;stroke-opacity:1" id="path16203" sodipodi:cx="301.6568" sodipodi:cy="391.3436" sodipodi:rx="4.6719556" sodipodi:ry="4.6719556" d="M 306.32875 391.3436 A 4.6719556 4.6719556 0 1 1  296.98484,391.3436 A 4.6719556 4.6719556 0 1 1  306.32875 391.3436 z" transform="matrix(-0.72973,0,0,0.72973,490.47,100.3514)"/>
        <path sodipodi:type="arc" style="fill:white;fill-opacity:1;fill-rule:nonzero;stroke:none;stroke-width:1;stroke-linecap:butt;stroke-linejoin:round;stroke-miterlimit:4;stroke-dasharray:none;stroke-dashoffset:0;stroke-opacity:1" id="path16209" sodipodi:cx="190.79256" sodipodi:cy="349.6748" sodipodi:rx="3.9143412" sodipodi:ry="3.9143412" d="M 194.7069 349.6748 A 3.9143412 3.9143412 0 1 1  186.87822,349.6748 A 3.9143412 3.9143412 0 1 1  194.7069 349.6748 z" transform="matrix(0.548387,0,0,0.548387,166.219,193.273)"/>
      </g>
      <g id="g17108">
        <path style="fill:white;fill-opacity:1;fill-rule:evenodd;stroke:none;stroke-width:0.57445019px;stroke-linecap:butt;stroke-linejoin:miter;stroke-opacity:1" d="M 292.47893,388.27624 C 298.42682,401.62274 311.04796,388.42132 311.04796,388.42132 C 311.04796,388.42132 300.02259,373.76918 292.47893,388.27624 z " id="path12635" sodipodi:nodetypes="ccc"/>
        <path style="fill:none;fill-opacity:0.75;fill-rule:evenodd;stroke:black;stroke-width:1px;stroke-linecap:butt;stroke-linejoin:miter;stroke-opacity:1" d="M 292.43916,388.43942 C 299.76276,373.0346 310.87445,388.43942 310.87445,388.43942" id="path14415" sodipodi:nodetypes="cc"/>
        <path style="fill:none;fill-opacity:0.75;fill-rule:evenodd;stroke:black;stroke-width:1px;stroke-linecap:butt;stroke-linejoin:miter;stroke-opacity:1" d="M 312.38967,386.92419 L 311.12698,388.69196 L 312.38967,390.71226 L 310.87445,388.43942 L 312.38967,388.69196" id="path14417"/>
        <path sodipodi:type="arc" style="fill:#003fff;fill-opacity:1;fill-rule:nonzero;stroke:none;stroke-width:1;stroke-linecap:butt;stroke-linejoin:round;stroke-miterlimit:4;stroke-dasharray:none;stroke-dashoffset:0;stroke-opacity:1" id="path15306" sodipodi:cx="301.6568" sodipodi:cy="391.3436" sodipodi:rx="4.6719556" sodipodi:ry="4.6719556" d="M 306.32875 391.3436 A 4.6719556 4.6719556 0 1 1  296.98484,391.3436 A 4.6719556 4.6719556 0 1 1  306.32875 391.3436 z" transform="matrix(1.108108,0,0,1.108108,-33.6217,-45.84295)"/>
        <path sodipodi:type="arc" style="fill:black;fill-opacity:1;fill-rule:nonzero;stroke:none;stroke-width:1;stroke-linecap:butt;stroke-linejoin:round;stroke-miterlimit:4;stroke-dasharray:none;stroke-dashoffset:0;stroke-opacity:1" id="path15308" sodipodi:cx="301.6568" sodipodi:cy="391.3436" sodipodi:rx="4.6719556" sodipodi:ry="4.6719556" d="M 306.32875 391.3436 A 4.6719556 4.6719556 0 1 1  296.98484,391.3436 A 4.6719556 4.6719556 0 1 1  306.32875 391.3436 z" transform="matrix(0.72973,0,0,0.72973,81.1501,100.8441)"/>
        <path sodipodi:type="arc" style="fill:white;fill-opacity:1;fill-rule:nonzero;stroke:none;stroke-width:1;stroke-linecap:butt;stroke-linejoin:round;stroke-miterlimit:4;stroke-dasharray:none;stroke-dashoffset:0;stroke-opacity:1" id="path17096" sodipodi:cx="190.79256" sodipodi:cy="349.6748" sodipodi:rx="3.9143412" sodipodi:ry="3.9143412" d="M 194.7069 349.6748 A 3.9143412 3.9143412 0 1 1  186.87822,349.6748 A 3.9143412 3.9143412 0 1 1  194.7069 349.6748 z" transform="matrix(0.548387,0,0,0.548387,196.9024,193.9044)"/>
      </g>
      <path sodipodi:nodetypes="cc" id="path19781" d="M 283.09524,367.19591 C 278.80209,361.64007 266.17519,370.47891 266.17519,370.47891" style="fill:none;fill-opacity:0.75;fill-rule:evenodd;stroke:black;stroke-width:1.79999995;stroke-linecap:round;stroke-linejoin:miter;stroke-miterlimit:4;stroke-dasharray:none;stroke-opacity:1"/>
      <path sodipodi:nodetypes="cc" id="path18888" d="M 285.36809,362.42799 C 293.44931,358.13484 305.82368,367.98383 305.82368,367.98383" style="fill:none;fill-opacity:0.75;fill-rule:evenodd;stroke:black;stroke-width:1.79999995;stroke-linecap:round;stroke-linejoin:miter;stroke-miterlimit:4;stroke-dasharray:none;stroke-opacity:1"/>
      <path sodipodi:nodetypes="cc" id="path19775" d="M 286.75706,366.94337 C 291.05021,361.38753 303.67711,370.22637 303.67711,370.22637" style="fill:none;fill-opacity:0.75;fill-rule:evenodd;stroke:black;stroke-width:1.79999995;stroke-linecap:round;stroke-linejoin:miter;stroke-miterlimit:4;stroke-dasharray:none;stroke-opacity:1"/>
    </g>
    <g id="g19814" transform="matrix(0.871529,0,0,0.871529,164.9646,79.11581)">
      <path id="path19816" d="M 285,345.21875 C 257.79429,345.21875 235.71874,367.29429 235.71875,394.5 C 235.71875,399.78927 236.58042,404.87906 238.125,409.65625 C 238.56658,411.02201 239.03902,412.37669 239.59375,413.6875 C 239.60285,413.709 239.61587,413.72851 239.625,413.75 C 246.87108,435.51413 240.90625,452.34375 240.90625,452.34375 L 240.96875,452.34375 C 230.84551,471.8866 224.625,498.13441 224.625,527 C 224.625,549.96774 228.54671,571.27795 235.25,588.875 C 239.15627,599.1295 244.05927,608.02846 249.625,615.34375 C 250.07647,615.44646 250.4456,615.58869 250.90625,615.6875 C 254.11477,616.37576 257.54914,616.95294 261.15625,617.4375 C 264.76336,617.92206 268.54409,618.30736 272.46875,618.5625 C 276.39341,618.81764 280.46382,618.96875 284.625,618.96875 C 288.78618,618.96875 292.82534,618.81764 296.75,618.5625 C 300.67466,618.30736 304.45539,617.92206 308.0625,617.4375 C 311.66961,616.95294 315.10398,616.37576 318.3125,615.6875 C 319.1758,615.50231 319.88803,615.26125 320.71875,615.0625 C 326.13685,607.87568 330.88421,599.17729 334.71875,589.1875 C 341.49692,571.52892 345.49999,550.10774 345.5,527 C 345.5,497.4135 338.95039,470.59039 328.375,450.90625 C 327.11415,446.14596 324.43075,432.33148 329.8125,415.0625 C 332.68925,408.80586 334.28125,401.83364 334.28125,394.5 C 334.28125,367.29429 312.20571,345.21874 285,345.21875 z " style="fill:#e6190a;fill-opacity:1;fill-rule:nonzero;stroke:black;stroke-width:1;stroke-linecap:butt;stroke-linejoin:round;stroke-miterlimit:4;stroke-dasharray:none;stroke-dashoffset:0;stroke-opacity:1"/>
      <path transform="matrix(1.091515,0,0,1.091515,13.60106,-28.93594)" d="M 286.88332 387.93436 A 38.133259 38.133259 0 1 1  210.6168,387.93436 A 38.133259 38.133259 0 1 1  286.88332 387.93436 z" sodipodi:ry="38.133259" sodipodi:rx="38.133259" sodipodi:cy="387.93436" sodipodi:cx="248.75006" id="path19818" style="fill:#e8cf7f;fill-opacity:1;fill-rule:nonzero;stroke:black;stroke-width:1;stroke-linecap:butt;stroke-linejoin:round;stroke-miterlimit:4;stroke-dasharray:none;stroke-dashoffset:0;stroke-opacity:1" sodipodi:type="arc"/>
      <path sodipodi:nodetypes="cscs" id="path19820" d="M 284.86302,357.88231 C 285.39071,359.18396 285.57063,364.82221 286.53008,366.29263 C 290.20255,371.92093 299.00515,373.53968 299.00515,373.53968 C 299.00515,373.53968 316.17775,374.80236 319.46074,382.63104 L 319.46074,382.88358 L 316.17775,370.00414 L 298.50008,357.62977 L 284.86302,357.88231 z " style="fill:#7b4800;fill-opacity:1;fill-rule:evenodd;stroke:black;stroke-width:2.20000005;stroke-linecap:butt;stroke-linejoin:miter;stroke-miterlimit:4;stroke-dasharray:none;stroke-opacity:1"/>
      <path sodipodi:nodetypes="cscs" id="path19822" d="M 284.98928,358.13485 C 284.46159,359.4365 284.28167,365.07475 283.32222,366.54517 C 279.64975,372.17347 270.84715,373.79222 270.84715,373.79222 C 270.84715,373.79222 253.67455,375.0549 250.39156,382.88358 L 250.39156,383.13612 L 253.67455,370.25668 L 271.35222,357.88231 L 284.98928,358.13485 z " style="fill:#7b4800;fill-opacity:1;fill-rule:evenodd;stroke:black;stroke-width:2.20000005;stroke-linecap:butt;stroke-linejoin:miter;stroke-miterlimit:4;stroke-dasharray:none;stroke-opacity:1"/>
      <path id="path19824" d="M 284.85925,352.6169 C 261.88334,352.6169 243.23426,371.266 243.23425,394.2419 C 243.23425,417.21781 261.88333,435.86691 284.85925,435.8669 C 307.83516,435.8669 326.48425,417.21782 326.48425,394.2419 C 326.48425,371.26599 307.83515,352.6169 284.85925,352.6169 z M 285.10925,357.8669 C 305.05803,357.86689 321.2655,374.04313 321.2655,393.9919 C 321.26549,413.94067 305.05802,430.14815 285.10925,430.14815 C 265.16049,430.14816 248.98425,413.94067 248.98425,393.9919 C 248.98425,374.04313 265.16048,357.8669 285.10925,357.8669 z " style="fill:#0a42ea;fill-opacity:1;fill-rule:nonzero;stroke:black;stroke-width:1;stroke-linecap:butt;stroke-linejoin:round;stroke-miterlimit:4;stroke-dasharray:none;stroke-dashoffset:0;stroke-opacity:1"/>
      <path id="path19826" d="M 281.40879,408.16133 C 280.33838,408.15313 279.04363,408.38695 279.03379,412.59883 C 279.03258,413.11581 279.20692,414.4953 277.59629,414.34883 L 291.44004,414.66133 C 291.05261,414.55863 290.54691,414.15838 290.59629,412.78633 C 290.66375,410.91169 290.14162,408.19257 288.87754,408.19258 C 286.95176,408.19258 286.80944,409.91132 285.15879,409.91133 C 283.50814,409.91133 283.08426,408.19257 281.84629,408.19258 C 281.70655,408.19258 281.56171,408.1625 281.40879,408.16133 z M 291.47129,414.66133 C 291.70598,414.7164 291.87754,414.66133 291.87754,414.66133 L 291.47129,414.66133 z M 277.72129,414.88008 C 284.13834,426.83132 292.00254,415.09883 292.00254,415.09883 L 277.72129,414.88008 z " style="fill:#ff0404;fill-opacity:1;fill-rule:evenodd;stroke:none;stroke-width:1.36912596px;stroke-linecap:butt;stroke-linejoin:miter;stroke-opacity:1"/>
      <path sodipodi:nodetypes="cc" id="path19828" d="M 268.95311,412.43054 C 284.86301,418.49146 301.53054,412.43054 301.53054,412.43054" style="fill:none;fill-opacity:0.75;fill-rule:evenodd;stroke:black;stroke-width:1px;stroke-linecap:butt;stroke-linejoin:miter;stroke-opacity:1"/>
      <path id="path19830" d="M 269.71073,410.66278 L 268.1955,413.69324" style="fill:none;fill-opacity:0.75;fill-rule:evenodd;stroke:black;stroke-width:1px;stroke-linecap:butt;stroke-linejoin:miter;stroke-opacity:1"/>
      <path id="path19832" d="M 300.52038,410.66278 L 301.78307,413.18816" style="fill:none;fill-opacity:0.75;fill-rule:evenodd;stroke:black;stroke-width:1px;stroke-linecap:butt;stroke-linejoin:miter;stroke-opacity:1"/>
      <path id="path19834" d="M 279.30718,398.52064 L 280.82241,400.54094" style="fill:none;fill-opacity:0.75;fill-rule:evenodd;stroke:black;stroke-width:1px;stroke-linecap:butt;stroke-linejoin:miter;stroke-opacity:1"/>
      <path id="path19836" d="M 286.63079,399.04603 L 285.11556,400.81379" style="fill:none;fill-opacity:0.75;fill-rule:evenodd;stroke:black;stroke-width:1px;stroke-linecap:butt;stroke-linejoin:miter;stroke-opacity:1"/>
      <path sodipodi:nodetypes="cc" id="path19838" d="M 284.48421,362.68053 C 276.40299,358.38738 264.02862,368.23637 264.02862,368.23637" style="fill:none;fill-opacity:0.75;fill-rule:evenodd;stroke:black;stroke-width:1.79999995;stroke-linecap:round;stroke-linejoin:miter;stroke-miterlimit:4;stroke-dasharray:none;stroke-opacity:1"/>
      <g id="g19840">
        <path style="fill:white;fill-opacity:1;fill-rule:evenodd;stroke:none;stroke-width:0.57445019px;stroke-linecap:butt;stroke-linejoin:miter;stroke-opacity:1" d="M 278.13098,387.53108 C 272.18309,400.87758 259.56195,387.67616 259.56195,387.67616 C 259.56195,387.67616 270.58732,373.02402 278.13098,387.53108 z " id="path19842" sodipodi:nodetypes="ccc"/>
        <path style="fill:none;fill-opacity:0.75;fill-rule:evenodd;stroke:black;stroke-width:1px;stroke-linecap:butt;stroke-linejoin:miter;stroke-opacity:1" d="M 278.17075,387.69426 C 270.84715,372.28944 259.73546,387.69426 259.73546,387.69426" id="path19844" sodipodi:nodetypes="cc"/>
        <path style="fill:none;fill-opacity:0.75;fill-rule:evenodd;stroke:black;stroke-width:1px;stroke-linecap:butt;stroke-linejoin:miter;stroke-opacity:1" d="M 258.22024,386.17903 L 259.48293,387.9468 L 258.22024,389.9671 L 259.73546,387.69426 L 258.22024,387.9468" id="path19846"/>
        <path sodipodi:type="arc" style="fill:#003fff;fill-opacity:1;fill-rule:nonzero;stroke:none;stroke-width:1;stroke-linecap:butt;stroke-linejoin:round;stroke-miterlimit:4;stroke-dasharray:none;stroke-dashoffset:0;stroke-opacity:1" id="path19848" sodipodi:cx="301.6568" sodipodi:cy="391.3436" sodipodi:rx="4.6719556" sodipodi:ry="4.6719556" d="M 306.32875 391.3436 A 4.6719556 4.6719556 0 1 1  296.98484,391.3436 A 4.6719556 4.6719556 0 1 1  306.32875 391.3436 z" transform="matrix(-1.108108,0,0,1.108108,604.2316,-46.58811)"/>
        <path sodipodi:type="arc" style="fill:black;fill-opacity:1;fill-rule:nonzero;stroke:none;stroke-width:1;stroke-linecap:butt;stroke-linejoin:round;stroke-miterlimit:4;stroke-dasharray:none;stroke-dashoffset:0;stroke-opacity:1" id="path19850" sodipodi:cx="301.6568" sodipodi:cy="391.3436" sodipodi:rx="4.6719556" sodipodi:ry="4.6719556" d="M 306.32875 391.3436 A 4.6719556 4.6719556 0 1 1  296.98484,391.3436 A 4.6719556 4.6719556 0 1 1  306.32875 391.3436 z" transform="matrix(-0.72973,0,0,0.72973,490.47,100.3514)"/>
        <path sodipodi:type="arc" style="fill:white;fill-opacity:1;fill-rule:nonzero;stroke:none;stroke-width:1;stroke-linecap:butt;stroke-linejoin:round;stroke-miterlimit:4;stroke-dasharray:none;stroke-dashoffset:0;stroke-opacity:1" id="path19852" sodipodi:cx="190.79256" sodipodi:cy="349.6748" sodipodi:rx="3.9143412" sodipodi:ry="3.9143412" d="M 194.7069 349.6748 A 3.9143412 3.9143412 0 1 1  186.87822,349.6748 A 3.9143412 3.9143412 0 1 1  194.7069 349.6748 z" transform="matrix(0.548387,0,0,0.548387,166.219,193.273)"/>
      </g>
      <g id="g19854">
        <path style="fill:white;fill-opacity:1;fill-rule:evenodd;stroke:none;stroke-width:0.57445019px;stroke-linecap:butt;stroke-linejoin:miter;stroke-opacity:1" d="M 292.47893,388.27624 C 298.42682,401.62274 311.04796,388.42132 311.04796,388.42132 C 311.04796,388.42132 300.02259,373.76918 292.47893,388.27624 z " id="path19856" sodipodi:nodetypes="ccc"/>
        <path style="fill:none;fill-opacity:0.75;fill-rule:evenodd;stroke:black;stroke-width:1px;stroke-linecap:butt;stroke-linejoin:miter;stroke-opacity:1" d="M 292.43916,388.43942 C 299.76276,373.0346 310.87445,388.43942 310.87445,388.43942" id="path19858" sodipodi:nodetypes="cc"/>
        <path style="fill:none;fill-opacity:0.75;fill-rule:evenodd;stroke:black;stroke-width:1px;stroke-linecap:butt;stroke-linejoin:miter;stroke-opacity:1" d="M 312.38967,386.92419 L 311.12698,388.69196 L 312.38967,390.71226 L 310.87445,388.43942 L 312.38967,388.69196" id="path19860"/>
        <path sodipodi:type="arc" style="fill:#003fff;fill-opacity:1;fill-rule:nonzero;stroke:none;stroke-width:1;stroke-linecap:butt;stroke-linejoin:round;stroke-miterlimit:4;stroke-dasharray:none;stroke-dashoffset:0;stroke-opacity:1" id="path19862" sodipodi:cx="301.6568" sodipodi:cy="391.3436" sodipodi:rx="4.6719556" sodipodi:ry="4.6719556" d="M 306.32875 391.3436 A 4.6719556 4.6719556 0 1 1  296.98484,391.3436 A 4.6719556 4.6719556 0 1 1  306.32875 391.3436 z" transform="matrix(1.108108,0,0,1.108108,-33.6217,-45.84295)"/>
        <path sodipodi:type="arc" style="fill:black;fill-opacity:1;fill-rule:nonzero;stroke:none;stroke-width:1;stroke-linecap:butt;stroke-linejoin:round;stroke-miterlimit:4;stroke-dasharray:none;stroke-dashoffset:0;stroke-opacity:1" id="path19864" sodipodi:cx="301.6568" sodipodi:cy="391.3436" sodipodi:rx="4.6719556" sodipodi:ry="4.6719556" d="M 306.32875 391.3436 A 4.6719556 4.6719556 0 1 1  296.98484,391.3436 A 4.6719556 4.6719556 0 1 1  306.32875 391.3436 z" transform="matrix(0.72973,0,0,0.72973,81.1501,100.8441)"/>
        <path sodipodi:type="arc" style="fill:white;fill-opacity:1;fill-rule:nonzero;stroke:none;stroke-width:1;stroke-linecap:butt;stroke-linejoin:round;stroke-miterlimit:4;stroke-dasharray:none;stroke-dashoffset:0;stroke-opacity:1" id="path19866" sodipodi:cx="190.79256" sodipodi:cy="349.6748" sodipodi:rx="3.9143412" sodipodi:ry="3.9143412" d="M 194.7069 349.6748 A 3.9143412 3.9143412 0 1 1  186.87822,349.6748 A 3.9143412 3.9143412 0 1 1  194.7069 349.6748 z" transform="matrix(0.548387,0,0,0.548387,196.9024,193.9044)"/>
      </g>
      <path sodipodi:nodetypes="cc" id="path19868" d="M 283.09524,367.19591 C 278.80209,361.64007 266.17519,370.47891 266.17519,370.47891" style="fill:none;fill-opacity:0.75;fill-rule:evenodd;stroke:black;stroke-width:1.79999995;stroke-linecap:round;stroke-linejoin:miter;stroke-miterlimit:4;stroke-dasharray:none;stroke-opacity:1"/>
      <path sodipodi:nodetypes="cc" id="path19870" d="M 285.36809,362.42799 C 293.44931,358.13484 305.82368,367.98383 305.82368,367.98383" style="fill:none;fill-opacity:0.75;fill-rule:evenodd;stroke:black;stroke-width:1.79999995;stroke-linecap:round;stroke-linejoin:miter;stroke-miterlimit:4;stroke-dasharray:none;stroke-opacity:1"/>
      <path sodipodi:nodetypes="cc" id="path19872" d="M 286.75706,366.94337 C 291.05021,361.38753 303.67711,370.22637 303.67711,370.22637" style="fill:none;fill-opacity:0.75;fill-rule:evenodd;stroke:black;stroke-width:1.79999995;stroke-linecap:round;stroke-linejoin:miter;stroke-miterlimit:4;stroke-dasharray:none;stroke-opacity:1"/>
    </g>
    <g id="g19934" transform="matrix(0.808816,0,0,0.808816,294.1777,118.4701)">
      <path id="path19936" d="M 285,345.21875 C 257.79429,345.21875 235.71874,367.29429 235.71875,394.5 C 235.71875,399.78927 236.58042,404.87906 238.125,409.65625 C 238.56658,411.02201 239.03902,412.37669 239.59375,413.6875 C 239.60285,413.709 239.61587,413.72851 239.625,413.75 C 246.87108,435.51413 240.90625,452.34375 240.90625,452.34375 L 240.96875,452.34375 C 230.84551,471.8866 224.625,498.13441 224.625,527 C 224.625,549.96774 228.54671,571.27795 235.25,588.875 C 239.15627,599.1295 244.05927,608.02846 249.625,615.34375 C 250.07647,615.44646 250.4456,615.58869 250.90625,615.6875 C 254.11477,616.37576 257.54914,616.95294 261.15625,617.4375 C 264.76336,617.92206 268.54409,618.30736 272.46875,618.5625 C 276.39341,618.81764 280.46382,618.96875 284.625,618.96875 C 288.78618,618.96875 292.82534,618.81764 296.75,618.5625 C 300.67466,618.30736 304.45539,617.92206 308.0625,617.4375 C 311.66961,616.95294 315.10398,616.37576 318.3125,615.6875 C 319.1758,615.50231 319.88803,615.26125 320.71875,615.0625 C 326.13685,607.87568 330.88421,599.17729 334.71875,589.1875 C 341.49692,571.52892 345.49999,550.10774 345.5,527 C 345.5,497.4135 338.95039,470.59039 328.375,450.90625 C 327.11415,446.14596 324.43075,432.33148 329.8125,415.0625 C 332.68925,408.80586 334.28125,401.83364 334.28125,394.5 C 334.28125,367.29429 312.20571,345.21874 285,345.21875 z " style="fill:#e6190a;fill-opacity:1;fill-rule:nonzero;stroke:black;stroke-width:1;stroke-linecap:butt;stroke-linejoin:round;stroke-miterlimit:4;stroke-dasharray:none;stroke-dashoffset:0;stroke-opacity:1"/>
      <path transform="matrix(1.091515,0,0,1.091515,13.60106,-28.93594)" d="M 286.88332 387.93436 A 38.133259 38.133259 0 1 1  210.6168,387.93436 A 38.133259 38.133259 0 1 1  286.88332 387.93436 z" sodipodi:ry="38.133259" sodipodi:rx="38.133259" sodipodi:cy="387.93436" sodipodi:cx="248.75006" id="path19938" style="fill:#e8cf7f;fill-opacity:1;fill-rule:nonzero;stroke:black;stroke-width:1;stroke-linecap:butt;stroke-linejoin:round;stroke-miterlimit:4;stroke-dasharray:none;stroke-dashoffset:0;stroke-opacity:1" sodipodi:type="arc"/>
      <path sodipodi:nodetypes="cscs" id="path19940" d="M 284.86302,357.88231 C 285.39071,359.18396 285.57063,364.82221 286.53008,366.29263 C 290.20255,371.92093 299.00515,373.53968 299.00515,373.53968 C 299.00515,373.53968 316.17775,374.80236 319.46074,382.63104 L 319.46074,382.88358 L 316.17775,370.00414 L 298.50008,357.62977 L 284.86302,357.88231 z " style="fill:#7b4800;fill-opacity:1;fill-rule:evenodd;stroke:black;stroke-width:2.20000005;stroke-linecap:butt;stroke-linejoin:miter;stroke-miterlimit:4;stroke-dasharray:none;stroke-opacity:1"/>
      <path sodipodi:nodetypes="cscs" id="path19942" d="M 284.98928,358.13485 C 284.46159,359.4365 284.28167,365.07475 283.32222,366.54517 C 279.64975,372.17347 270.84715,373.79222 270.84715,373.79222 C 270.84715,373.79222 253.67455,375.0549 250.39156,382.88358 L 250.39156,383.13612 L 253.67455,370.25668 L 271.35222,357.88231 L 284.98928,358.13485 z " style="fill:#7b4800;fill-opacity:1;fill-rule:evenodd;stroke:black;stroke-width:2.20000005;stroke-linecap:butt;stroke-linejoin:miter;stroke-miterlimit:4;stroke-dasharray:none;stroke-opacity:1"/>
      <path id="path19944" d="M 284.85925,352.6169 C 261.88334,352.6169 243.23426,371.266 243.23425,394.2419 C 243.23425,417.21781 261.88333,435.86691 284.85925,435.8669 C 307.83516,435.8669 326.48425,417.21782 326.48425,394.2419 C 326.48425,371.26599 307.83515,352.6169 284.85925,352.6169 z M 285.10925,357.8669 C 305.05803,357.86689 321.2655,374.04313 321.2655,393.9919 C 321.26549,413.94067 305.05802,430.14815 285.10925,430.14815 C 265.16049,430.14816 248.98425,413.94067 248.98425,393.9919 C 248.98425,374.04313 265.16048,357.8669 285.10925,357.8669 z " style="fill:#0a42ea;fill-opacity:1;fill-rule:nonzero;stroke:black;stroke-width:1;stroke-linecap:butt;stroke-linejoin:round;stroke-miterlimit:4;stroke-dasharray:none;stroke-dashoffset:0;stroke-opacity:1"/>
      <path id="path19946" d="M 281.40879,408.16133 C 280.33838,408.15313 279.04363,408.38695 279.03379,412.59883 C 279.03258,413.11581 279.20692,414.4953 277.59629,414.34883 L 291.44004,414.66133 C 291.05261,414.55863 290.54691,414.15838 290.59629,412.78633 C 290.66375,410.91169 290.14162,408.19257 288.87754,408.19258 C 286.95176,408.19258 286.80944,409.91132 285.15879,409.91133 C 283.50814,409.91133 283.08426,408.19257 281.84629,408.19258 C 281.70655,408.19258 281.56171,408.1625 281.40879,408.16133 z M 291.47129,414.66133 C 291.70598,414.7164 291.87754,414.66133 291.87754,414.66133 L 291.47129,414.66133 z M 277.72129,414.88008 C 284.13834,426.83132 292.00254,415.09883 292.00254,415.09883 L 277.72129,414.88008 z " style="fill:#ff0404;fill-opacity:1;fill-rule:evenodd;stroke:none;stroke-width:1.36912596px;stroke-linecap:butt;stroke-linejoin:miter;stroke-opacity:1"/>
      <path sodipodi:nodetypes="cc" id="path19948" d="M 268.95311,412.43054 C 284.86301,418.49146 301.53054,412.43054 301.53054,412.43054" style="fill:none;fill-opacity:0.75;fill-rule:evenodd;stroke:black;stroke-width:1px;stroke-linecap:butt;stroke-linejoin:miter;stroke-opacity:1"/>
      <path id="path19950" d="M 269.71073,410.66278 L 268.1955,413.69324" style="fill:none;fill-opacity:0.75;fill-rule:evenodd;stroke:black;stroke-width:1px;stroke-linecap:butt;stroke-linejoin:miter;stroke-opacity:1"/>
      <path id="path19952" d="M 300.52038,410.66278 L 301.78307,413.18816" style="fill:none;fill-opacity:0.75;fill-rule:evenodd;stroke:black;stroke-width:1px;stroke-linecap:butt;stroke-linejoin:miter;stroke-opacity:1"/>
      <path id="path19954" d="M 279.30718,398.52064 L 280.82241,400.54094" style="fill:none;fill-opacity:0.75;fill-rule:evenodd;stroke:black;stroke-width:1px;stroke-linecap:butt;stroke-linejoin:miter;stroke-opacity:1"/>
      <path id="path19956" d="M 286.63079,399.04603 L 285.11556,400.81379" style="fill:none;fill-opacity:0.75;fill-rule:evenodd;stroke:black;stroke-width:1px;stroke-linecap:butt;stroke-linejoin:miter;stroke-opacity:1"/>
      <path sodipodi:nodetypes="cc" id="path19958" d="M 284.48421,362.68053 C 276.40299,358.38738 264.02862,368.23637 264.02862,368.23637" style="fill:none;fill-opacity:0.75;fill-rule:evenodd;stroke:black;stroke-width:1.79999995;stroke-linecap:round;stroke-linejoin:miter;stroke-miterlimit:4;stroke-dasharray:none;stroke-opacity:1"/>
      <g id="g19960">
        <path style="fill:white;fill-opacity:1;fill-rule:evenodd;stroke:none;stroke-width:0.57445019px;stroke-linecap:butt;stroke-linejoin:miter;stroke-opacity:1" d="M 278.13098,387.53108 C 272.18309,400.87758 259.56195,387.67616 259.56195,387.67616 C 259.56195,387.67616 270.58732,373.02402 278.13098,387.53108 z " id="path19962" sodipodi:nodetypes="ccc"/>
        <path style="fill:none;fill-opacity:0.75;fill-rule:evenodd;stroke:black;stroke-width:1px;stroke-linecap:butt;stroke-linejoin:miter;stroke-opacity:1" d="M 278.17075,387.69426 C 270.84715,372.28944 259.73546,387.69426 259.73546,387.69426" id="path19964" sodipodi:nodetypes="cc"/>
        <path style="fill:none;fill-opacity:0.75;fill-rule:evenodd;stroke:black;stroke-width:1px;stroke-linecap:butt;stroke-linejoin:miter;stroke-opacity:1" d="M 258.22024,386.17903 L 259.48293,387.9468 L 258.22024,389.9671 L 259.73546,387.69426 L 258.22024,387.9468" id="path19966"/>
        <path sodipodi:type="arc" style="fill:#003fff;fill-opacity:1;fill-rule:nonzero;stroke:none;stroke-width:1;stroke-linecap:butt;stroke-linejoin:round;stroke-miterlimit:4;stroke-dasharray:none;stroke-dashoffset:0;stroke-opacity:1" id="path19968" sodipodi:cx="301.6568" sodipodi:cy="391.3436" sodipodi:rx="4.6719556" sodipodi:ry="4.6719556" d="M 306.32875 391.3436 A 4.6719556 4.6719556 0 1 1  296.98484,391.3436 A 4.6719556 4.6719556 0 1 1  306.32875 391.3436 z" transform="matrix(-1.108108,0,0,1.108108,604.2316,-46.58811)"/>
        <path sodipodi:type="arc" style="fill:black;fill-opacity:1;fill-rule:nonzero;stroke:none;stroke-width:1;stroke-linecap:butt;stroke-linejoin:round;stroke-miterlimit:4;stroke-dasharray:none;stroke-dashoffset:0;stroke-opacity:1" id="path19970" sodipodi:cx="301.6568" sodipodi:cy="391.3436" sodipodi:rx="4.6719556" sodipodi:ry="4.6719556" d="M 306.32875 391.3436 A 4.6719556 4.6719556 0 1 1  296.98484,391.3436 A 4.6719556 4.6719556 0 1 1  306.32875 391.3436 z" transform="matrix(-0.72973,0,0,0.72973,490.47,100.3514)"/>
        <path sodipodi:type="arc" style="fill:white;fill-opacity:1;fill-rule:nonzero;stroke:none;stroke-width:1;stroke-linecap:butt;stroke-linejoin:round;stroke-miterlimit:4;stroke-dasharray:none;stroke-dashoffset:0;stroke-opacity:1" id="path19972" sodipodi:cx="190.79256" sodipodi:cy="349.6748" sodipodi:rx="3.9143412" sodipodi:ry="3.9143412" d="M 194.7069 349.6748 A 3.9143412 3.9143412 0 1 1  186.87822,349.6748 A 3.9143412 3.9143412 0 1 1  194.7069 349.6748 z" transform="matrix(0.548387,0,0,0.548387,166.219,193.273)"/>
      </g>
      <g id="g19974">
        <path style="fill:white;fill-opacity:1;fill-rule:evenodd;stroke:none;stroke-width:0.57445019px;stroke-linecap:butt;stroke-linejoin:miter;stroke-opacity:1" d="M 292.47893,388.27624 C 298.42682,401.62274 311.04796,388.42132 311.04796,388.42132 C 311.04796,388.42132 300.02259,373.76918 292.47893,388.27624 z " id="path19976" sodipodi:nodetypes="ccc"/>
        <path style="fill:none;fill-opacity:0.75;fill-rule:evenodd;stroke:black;stroke-width:1px;stroke-linecap:butt;stroke-linejoin:miter;stroke-opacity:1" d="M 292.43916,388.43942 C 299.76276,373.0346 310.87445,388.43942 310.87445,388.43942" id="path19978" sodipodi:nodetypes="cc"/>
        <path style="fill:none;fill-opacity:0.75;fill-rule:evenodd;stroke:black;stroke-width:1px;stroke-linecap:butt;stroke-linejoin:miter;stroke-opacity:1" d="M 312.38967,386.92419 L 311.12698,388.69196 L 312.38967,390.71226 L 310.87445,388.43942 L 312.38967,388.69196" id="path19980"/>
        <path sodipodi:type="arc" style="fill:#003fff;fill-opacity:1;fill-rule:nonzero;stroke:none;stroke-width:1;stroke-linecap:butt;stroke-linejoin:round;stroke-miterlimit:4;stroke-dasharray:none;stroke-dashoffset:0;stroke-opacity:1" id="path19982" sodipodi:cx="301.6568" sodipodi:cy="391.3436" sodipodi:rx="4.6719556" sodipodi:ry="4.6719556" d="M 306.32875 391.3436 A 4.6719556 4.6719556 0 1 1  296.98484,391.3436 A 4.6719556 4.6719556 0 1 1  306.32875 391.3436 z" transform="matrix(1.108108,0,0,1.108108,-33.6217,-45.84295)"/>
        <path sodipodi:type="arc" style="fill:black;fill-opacity:1;fill-rule:nonzero;stroke:none;stroke-width:1;stroke-linecap:butt;stroke-linejoin:round;stroke-miterlimit:4;stroke-dasharray:none;stroke-dashoffset:0;stroke-opacity:1" id="path19984" sodipodi:cx="301.6568" sodipodi:cy="391.3436" sodipodi:rx="4.6719556" sodipodi:ry="4.6719556" d="M 306.32875 391.3436 A 4.6719556 4.6719556 0 1 1  296.98484,391.3436 A 4.6719556 4.6719556 0 1 1  306.32875 391.3436 z" transform="matrix(0.72973,0,0,0.72973,81.1501,100.8441)"/>
        <path sodipodi:type="arc" style="fill:white;fill-opacity:1;fill-rule:nonzero;stroke:none;stroke-width:1;stroke-linecap:butt;stroke-linejoin:round;stroke-miterlimit:4;stroke-dasharray:none;stroke-dashoffset:0;stroke-opacity:1" id="path19986" sodipodi:cx="190.79256" sodipodi:cy="349.6748" sodipodi:rx="3.9143412" sodipodi:ry="3.9143412" d="M 194.7069 349.6748 A 3.9143412 3.9143412 0 1 1  186.87822,349.6748 A 3.9143412 3.9143412 0 1 1  194.7069 349.6748 z" transform="matrix(0.548387,0,0,0.548387,196.9024,193.9044)"/>
      </g>
      <path sodipodi:nodetypes="cc" id="path19988" d="M 283.09524,367.19591 C 278.80209,361.64007 266.17519,370.47891 266.17519,370.47891" style="fill:none;fill-opacity:0.75;fill-rule:evenodd;stroke:black;stroke-width:1.79999995;stroke-linecap:round;stroke-linejoin:miter;stroke-miterlimit:4;stroke-dasharray:none;stroke-opacity:1"/>
      <path sodipodi:nodetypes="cc" id="path19990" d="M 285.36809,362.42799 C 293.44931,358.13484 305.82368,367.98383 305.82368,367.98383" style="fill:none;fill-opacity:0.75;fill-rule:evenodd;stroke:black;stroke-width:1.79999995;stroke-linecap:round;stroke-linejoin:miter;stroke-miterlimit:4;stroke-dasharray:none;stroke-opacity:1"/>
      <path sodipodi:nodetypes="cc" id="path19992" d="M 286.75706,366.94337 C 291.05021,361.38753 303.67711,370.22637 303.67711,370.22637" style="fill:none;fill-opacity:0.75;fill-rule:evenodd;stroke:black;stroke-width:1.79999995;stroke-linecap:round;stroke-linejoin:miter;stroke-miterlimit:4;stroke-dasharray:none;stroke-opacity:1"/>
    </g>
    <g id="g19994" transform="matrix(0.73477,0,0,0.73477,416.8391,164.844)">
      <path id="path19996" d="M 285,345.21875 C 257.79429,345.21875 235.71874,367.29429 235.71875,394.5 C 235.71875,399.78927 236.58042,404.87906 238.125,409.65625 C 238.56658,411.02201 239.03902,412.37669 239.59375,413.6875 C 239.60285,413.709 239.61587,413.72851 239.625,413.75 C 246.87108,435.51413 240.90625,452.34375 240.90625,452.34375 L 240.96875,452.34375 C 230.84551,471.8866 224.625,498.13441 224.625,527 C 224.625,549.96774 228.54671,571.27795 235.25,588.875 C 239.15627,599.1295 244.05927,608.02846 249.625,615.34375 C 250.07647,615.44646 250.4456,615.58869 250.90625,615.6875 C 254.11477,616.37576 257.54914,616.95294 261.15625,617.4375 C 264.76336,617.92206 268.54409,618.30736 272.46875,618.5625 C 276.39341,618.81764 280.46382,618.96875 284.625,618.96875 C 288.78618,618.96875 292.82534,618.81764 296.75,618.5625 C 300.67466,618.30736 304.45539,617.92206 308.0625,617.4375 C 311.66961,616.95294 315.10398,616.37576 318.3125,615.6875 C 319.1758,615.50231 319.88803,615.26125 320.71875,615.0625 C 326.13685,607.87568 330.88421,599.17729 334.71875,589.1875 C 341.49692,571.52892 345.49999,550.10774 345.5,527 C 345.5,497.4135 338.95039,470.59039 328.375,450.90625 C 327.11415,446.14596 324.43075,432.33148 329.8125,415.0625 C 332.68925,408.80586 334.28125,401.83364 334.28125,394.5 C 334.28125,367.29429 312.20571,345.21874 285,345.21875 z " style="fill:#e6190a;fill-opacity:1;fill-rule:nonzero;stroke:black;stroke-width:1;stroke-linecap:butt;stroke-linejoin:round;stroke-miterlimit:4;stroke-dasharray:none;stroke-dashoffset:0;stroke-opacity:1"/>
      <path transform="matrix(1.091515,0,0,1.091515,13.60106,-28.93594)" d="M 286.88332 387.93436 A 38.133259 38.133259 0 1 1  210.6168,387.93436 A 38.133259 38.133259 0 1 1  286.88332 387.93436 z" sodipodi:ry="38.133259" sodipodi:rx="38.133259" sodipodi:cy="387.93436" sodipodi:cx="248.75006" id="path19998" style="fill:#e8cf7f;fill-opacity:1;fill-rule:nonzero;stroke:black;stroke-width:1;stroke-linecap:butt;stroke-linejoin:round;stroke-miterlimit:4;stroke-dasharray:none;stroke-dashoffset:0;stroke-opacity:1" sodipodi:type="arc"/>
      <path sodipodi:nodetypes="cscs" id="path20000" d="M 284.86302,357.88231 C 285.39071,359.18396 285.57063,364.82221 286.53008,366.29263 C 290.20255,371.92093 299.00515,373.53968 299.00515,373.53968 C 299.00515,373.53968 316.17775,374.80236 319.46074,382.63104 L 319.46074,382.88358 L 316.17775,370.00414 L 298.50008,357.62977 L 284.86302,357.88231 z " style="fill:#7b4800;fill-opacity:1;fill-rule:evenodd;stroke:black;stroke-width:2.20000005;stroke-linecap:butt;stroke-linejoin:miter;stroke-miterlimit:4;stroke-dasharray:none;stroke-opacity:1"/>
      <path sodipodi:nodetypes="cscs" id="path20002" d="M 284.98928,358.13485 C 284.46159,359.4365 284.28167,365.07475 283.32222,366.54517 C 279.64975,372.17347 270.84715,373.79222 270.84715,373.79222 C 270.84715,373.79222 253.67455,375.0549 250.39156,382.88358 L 250.39156,383.13612 L 253.67455,370.25668 L 271.35222,357.88231 L 284.98928,358.13485 z " style="fill:#7b4800;fill-opacity:1;fill-rule:evenodd;stroke:black;stroke-width:2.20000005;stroke-linecap:butt;stroke-linejoin:miter;stroke-miterlimit:4;stroke-dasharray:none;stroke-opacity:1"/>
      <path id="path20004" d="M 284.85925,352.6169 C 261.88334,352.6169 243.23426,371.266 243.23425,394.2419 C 243.23425,417.21781 261.88333,435.86691 284.85925,435.8669 C 307.83516,435.8669 326.48425,417.21782 326.48425,394.2419 C 326.48425,371.26599 307.83515,352.6169 284.85925,352.6169 z M 285.10925,357.8669 C 305.05803,357.86689 321.2655,374.04313 321.2655,393.9919 C 321.26549,413.94067 305.05802,430.14815 285.10925,430.14815 C 265.16049,430.14816 248.98425,413.94067 248.98425,393.9919 C 248.98425,374.04313 265.16048,357.8669 285.10925,357.8669 z " style="fill:#0a42ea;fill-opacity:1;fill-rule:nonzero;stroke:black;stroke-width:1;stroke-linecap:butt;stroke-linejoin:round;stroke-miterlimit:4;stroke-dasharray:none;stroke-dashoffset:0;stroke-opacity:1"/>
      <path id="path20006" d="M 281.40879,408.16133 C 280.33838,408.15313 279.04363,408.38695 279.03379,412.59883 C 279.03258,413.11581 279.20692,414.4953 277.59629,414.34883 L 291.44004,414.66133 C 291.05261,414.55863 290.54691,414.15838 290.59629,412.78633 C 290.66375,410.91169 290.14162,408.19257 288.87754,408.19258 C 286.95176,408.19258 286.80944,409.91132 285.15879,409.91133 C 283.50814,409.91133 283.08426,408.19257 281.84629,408.19258 C 281.70655,408.19258 281.56171,408.1625 281.40879,408.16133 z M 291.47129,414.66133 C 291.70598,414.7164 291.87754,414.66133 291.87754,414.66133 L 291.47129,414.66133 z M 277.72129,414.88008 C 284.13834,426.83132 292.00254,415.09883 292.00254,415.09883 L 277.72129,414.88008 z " style="fill:#ff0404;fill-opacity:1;fill-rule:evenodd;stroke:none;stroke-width:1.36912596px;stroke-linecap:butt;stroke-linejoin:miter;stroke-opacity:1"/>
      <path sodipodi:nodetypes="cc" id="path20008" d="M 268.95311,412.43054 C 284.86301,418.49146 301.53054,412.43054 301.53054,412.43054" style="fill:none;fill-opacity:0.75;fill-rule:evenodd;stroke:black;stroke-width:1px;stroke-linecap:butt;stroke-linejoin:miter;stroke-opacity:1"/>
      <path id="path20010" d="M 269.71073,410.66278 L 268.1955,413.69324" style="fill:none;fill-opacity:0.75;fill-rule:evenodd;stroke:black;stroke-width:1px;stroke-linecap:butt;stroke-linejoin:miter;stroke-opacity:1"/>
      <path id="path20012" d="M 300.52038,410.66278 L 301.78307,413.18816" style="fill:none;fill-opacity:0.75;fill-rule:evenodd;stroke:black;stroke-width:1px;stroke-linecap:butt;stroke-linejoin:miter;stroke-opacity:1"/>
      <path id="path20014" d="M 279.30718,398.52064 L 280.82241,400.54094" style="fill:none;fill-opacity:0.75;fill-rule:evenodd;stroke:black;stroke-width:1px;stroke-linecap:butt;stroke-linejoin:miter;stroke-opacity:1"/>
      <path id="path20016" d="M 286.63079,399.04603 L 285.11556,400.81379" style="fill:none;fill-opacity:0.75;fill-rule:evenodd;stroke:black;stroke-width:1px;stroke-linecap:butt;stroke-linejoin:miter;stroke-opacity:1"/>
      <path sodipodi:nodetypes="cc" id="path20018" d="M 284.48421,362.68053 C 276.40299,358.38738 264.02862,368.23637 264.02862,368.23637" style="fill:none;fill-opacity:0.75;fill-rule:evenodd;stroke:black;stroke-width:1.79999995;stroke-linecap:round;stroke-linejoin:miter;stroke-miterlimit:4;stroke-dasharray:none;stroke-opacity:1"/>
      <g id="g20020">
        <path style="fill:white;fill-opacity:1;fill-rule:evenodd;stroke:none;stroke-width:0.57445019px;stroke-linecap:butt;stroke-linejoin:miter;stroke-opacity:1" d="M 278.13098,387.53108 C 272.18309,400.87758 259.56195,387.67616 259.56195,387.67616 C 259.56195,387.67616 270.58732,373.02402 278.13098,387.53108 z " id="path20022" sodipodi:nodetypes="ccc"/>
        <path style="fill:none;fill-opacity:0.75;fill-rule:evenodd;stroke:black;stroke-width:1px;stroke-linecap:butt;stroke-linejoin:miter;stroke-opacity:1" d="M 278.17075,387.69426 C 270.84715,372.28944 259.73546,387.69426 259.73546,387.69426" id="path20024" sodipodi:nodetypes="cc"/>
        <path style="fill:none;fill-opacity:0.75;fill-rule:evenodd;stroke:black;stroke-width:1px;stroke-linecap:butt;stroke-linejoin:miter;stroke-opacity:1" d="M 258.22024,386.17903 L 259.48293,387.9468 L 258.22024,389.9671 L 259.73546,387.69426 L 258.22024,387.9468" id="path20026"/>
        <path sodipodi:type="arc" style="fill:#003fff;fill-opacity:1;fill-rule:nonzero;stroke:none;stroke-width:1;stroke-linecap:butt;stroke-linejoin:round;stroke-miterlimit:4;stroke-dasharray:none;stroke-dashoffset:0;stroke-opacity:1" id="path20028" sodipodi:cx="301.6568" sodipodi:cy="391.3436" sodipodi:rx="4.6719556" sodipodi:ry="4.6719556" d="M 306.32875 391.3436 A 4.6719556 4.6719556 0 1 1  296.98484,391.3436 A 4.6719556 4.6719556 0 1 1  306.32875 391.3436 z" transform="matrix(-1.108108,0,0,1.108108,604.2316,-46.58811)"/>
        <path sodipodi:type="arc" style="fill:black;fill-opacity:1;fill-rule:nonzero;stroke:none;stroke-width:1;stroke-linecap:butt;stroke-linejoin:round;stroke-miterlimit:4;stroke-dasharray:none;stroke-dashoffset:0;stroke-opacity:1" id="path20030" sodipodi:cx="301.6568" sodipodi:cy="391.3436" sodipodi:rx="4.6719556" sodipodi:ry="4.6719556" d="M 306.32875 391.3436 A 4.6719556 4.6719556 0 1 1  296.98484,391.3436 A 4.6719556 4.6719556 0 1 1  306.32875 391.3436 z" transform="matrix(-0.72973,0,0,0.72973,490.47,100.3514)"/>
        <path sodipodi:type="arc" style="fill:white;fill-opacity:1;fill-rule:nonzero;stroke:none;stroke-width:1;stroke-linecap:butt;stroke-linejoin:round;stroke-miterlimit:4;stroke-dasharray:none;stroke-dashoffset:0;stroke-opacity:1" id="path20032" sodipodi:cx="190.79256" sodipodi:cy="349.6748" sodipodi:rx="3.9143412" sodipodi:ry="3.9143412" d="M 194.7069 349.6748 A 3.9143412 3.9143412 0 1 1  186.87822,349.6748 A 3.9143412 3.9143412 0 1 1  194.7069 349.6748 z" transform="matrix(0.548387,0,0,0.548387,166.219,193.273)"/>
      </g>
      <g id="g20034">
        <path style="fill:white;fill-opacity:1;fill-rule:evenodd;stroke:none;stroke-width:0.57445019px;stroke-linecap:butt;stroke-linejoin:miter;stroke-opacity:1" d="M 292.47893,388.27624 C 298.42682,401.62274 311.04796,388.42132 311.04796,388.42132 C 311.04796,388.42132 300.02259,373.76918 292.47893,388.27624 z " id="path20036" sodipodi:nodetypes="ccc"/>
        <path style="fill:none;fill-opacity:0.75;fill-rule:evenodd;stroke:black;stroke-width:1px;stroke-linecap:butt;stroke-linejoin:miter;stroke-opacity:1" d="M 292.43916,388.43942 C 299.76276,373.0346 310.87445,388.43942 310.87445,388.43942" id="path20038" sodipodi:nodetypes="cc"/>
        <path style="fill:none;fill-opacity:0.75;fill-rule:evenodd;stroke:black;stroke-width:1px;stroke-linecap:butt;stroke-linejoin:miter;stroke-opacity:1" d="M 312.38967,386.92419 L 311.12698,388.69196 L 312.38967,390.71226 L 310.87445,388.43942 L 312.38967,388.69196" id="path20040"/>
        <path sodipodi:type="arc" style="fill:#003fff;fill-opacity:1;fill-rule:nonzero;stroke:none;stroke-width:1;stroke-linecap:butt;stroke-linejoin:round;stroke-miterlimit:4;stroke-dasharray:none;stroke-dashoffset:0;stroke-opacity:1" id="path20042" sodipodi:cx="301.6568" sodipodi:cy="391.3436" sodipodi:rx="4.6719556" sodipodi:ry="4.6719556" d="M 306.32875 391.3436 A 4.6719556 4.6719556 0 1 1  296.98484,391.3436 A 4.6719556 4.6719556 0 1 1  306.32875 391.3436 z" transform="matrix(1.108108,0,0,1.108108,-33.6217,-45.84295)"/>
        <path sodipodi:type="arc" style="fill:black;fill-opacity:1;fill-rule:nonzero;stroke:none;stroke-width:1;stroke-linecap:butt;stroke-linejoin:round;stroke-miterlimit:4;stroke-dasharray:none;stroke-dashoffset:0;stroke-opacity:1" id="path20044" sodipodi:cx="301.6568" sodipodi:cy="391.3436" sodipodi:rx="4.6719556" sodipodi:ry="4.6719556" d="M 306.32875 391.3436 A 4.6719556 4.6719556 0 1 1  296.98484,391.3436 A 4.6719556 4.6719556 0 1 1  306.32875 391.3436 z" transform="matrix(0.72973,0,0,0.72973,81.1501,100.8441)"/>
        <path sodipodi:type="arc" style="fill:white;fill-opacity:1;fill-rule:nonzero;stroke:none;stroke-width:1;stroke-linecap:butt;stroke-linejoin:round;stroke-miterlimit:4;stroke-dasharray:none;stroke-dashoffset:0;stroke-opacity:1" id="path20046" sodipodi:cx="190.79256" sodipodi:cy="349.6748" sodipodi:rx="3.9143412" sodipodi:ry="3.9143412" d="M 194.7069 349.6748 A 3.9143412 3.9143412 0 1 1  186.87822,349.6748 A 3.9143412 3.9143412 0 1 1  194.7069 349.6748 z" transform="matrix(0.548387,0,0,0.548387,196.9024,193.9044)"/>
      </g>
      <path sodipodi:nodetypes="cc" id="path20048" d="M 283.09524,367.19591 C 278.80209,361.64007 266.17519,370.47891 266.17519,370.47891" style="fill:none;fill-opacity:0.75;fill-rule:evenodd;stroke:black;stroke-width:1.79999995;stroke-linecap:round;stroke-linejoin:miter;stroke-miterlimit:4;stroke-dasharray:none;stroke-opacity:1"/>
      <path sodipodi:nodetypes="cc" id="path20050" d="M 285.36809,362.42799 C 293.44931,358.13484 305.82368,367.98383 305.82368,367.98383" style="fill:none;fill-opacity:0.75;fill-rule:evenodd;stroke:black;stroke-width:1.79999995;stroke-linecap:round;stroke-linejoin:miter;stroke-miterlimit:4;stroke-dasharray:none;stroke-opacity:1"/>
      <path sodipodi:nodetypes="cc" id="path20052" d="M 286.75706,366.94337 C 291.05021,361.38753 303.67711,370.22637 303.67711,370.22637" style="fill:none;fill-opacity:0.75;fill-rule:evenodd;stroke:black;stroke-width:1.79999995;stroke-linecap:round;stroke-linejoin:miter;stroke-miterlimit:4;stroke-dasharray:none;stroke-opacity:1"/>
    </g>
  </g>
  <metadata>
    <rdf:RDF>
      <cc:Work>
        <dc:format>image/svg+xml</dc:format>
        <dc:type rdf:resource="http://purl.org/dc/dcmitype/StillImage"/>
        <cc:license rdf:resource="http://creativecommons.org/licenses/publicdomain/"/>
        <dc:publisher>
          <cc:Agent rdf:about="http://openclipart.org/">
            <dc:title>Open Clip Art Library</dc:title>
          </cc:Agent>
        </dc:publisher>
        <dc:title>Matrioshka</dc:title>
        <dc:date>2006-10-13T03:06:50</dc:date>
        <dc:description>Four Russian wooden dolls</dc:description>
        <dc:source>http://openclipart.org/detail/562/matrioshka-by-artefact</dc:source>
        <dc:creator>
          <cc:Agent>
            <dc:title>artefact</dc:title>
          </cc:Agent>
        </dc:creator>
        <dc:subject>
          <rdf:Bag>
            <rdf:li>cartoon</rdf:li>
            <rdf:li>cartoon</rdf:li>
            <rdf:li>clip art</rdf:li>
            <rdf:li>clipart</rdf:li>
            <rdf:li>doll</rdf:li>
            <rdf:li>doll</rdf:li>
            <rdf:li>image</rdf:li>
            <rdf:li>matrioshka</rdf:li>
            <rdf:li>matrioshka</rdf:li>
            <rdf:li>media</rdf:li>
            <rdf:li>people</rdf:li>
            <rdf:li>people</rdf:li>
            <rdf:li>png</rdf:li>
            <rdf:li>public domain</rdf:li>
            <rdf:li>russian</rdf:li>
            <rdf:li>russian</rdf:li>
            <rdf:li>svg</rdf:li>
          </rdf:Bag>
        </dc:subject>
      </cc:Work>
      <cc:License rdf:about="http://creativecommons.org/licenses/publicdomain/">
        <cc:permits rdf:resource="http://creativecommons.org/ns#Reproduction"/>
        <cc:permits rdf:resource="http://creativecommons.org/ns#Distribution"/>
        <cc:permits rdf:resource="http://creativecommons.org/ns#DerivativeWorks"/>
      </cc:License>
    </rdf:RDF>
  </metadata>
</svg>
